M48
;Layer_Color=9474304
;FILE_FORMAT=2:5
INCH,LZ
;TYPE=PLATED
T1F00S00C0.00984
T2F00S00C0.01299
T3F00S00C0.02165
T4F00S00C0.02953
T5F00S00C0.05118
T6F00S00C0.06693
;TYPE=NON_PLATED
T7F00S00C0.02362
T8F00S00C0.06693
T9F00S00C0.07874
T10F00S00C0.13386
%
T01
X0049213Y-0114173
X0045276Y-0072441
X0067323Y-0076673
X0098425Y-0114173
X0147638Y-007874
X0005512Y-0081496
X-0000984Y-0081398
X-0014961Y-0072047
X-0029528Y-0097638
X-0045984Y-0101181
X-0049213Y-0114173
X-0050787Y-0088583
X-0056732Y-0084252
X-0069213Y-0091496
X-0069701Y-0075937
X-0080315Y-0074803
X-0089055Y-007563
X-0096142Y-0093307
X-0101969Y-010102
X0Y-0114173
X-0125591Y-0105118
X-0149606Y-0074016
X-0135827Y-0068504
Y-0057874
X-013563Y-0052205
X-0145197Y-0047795
X-0149606Y-0037402
X-0121693Y-0044409
X-0123031Y-0026535
X-0134843Y-0010335
X-0145236Y-0006772
X-0144095Y0007874
X-0134606Y0003779
X-012874Y0008661
X-0126181Y0
X-0132677Y0023622
X-0138976Y0018307
X-0147323Y0028543
X-0148976Y0032992
X-0148937Y0037795
X-0134606Y0036102
X-013189Y0038976
X-0133465Y0044488
X-013315Y005685
X-0128445Y0059346
X-0123831Y0059445
X-0119685Y0066535
X-0125591Y0073228
X-0131496Y0078347
X-0124409Y0085433
X-0117382Y0077583
X-0146063Y0085039
X-0148031Y0060236
X-0111339Y0057146
Y0045669
X-0104449Y0043898
X-0093465Y0045
X-0093307Y0032874
X-0090079Y0032638
X-0087677Y0034724
X-0080375Y0028913
X-0069291Y0030906
X-0066437Y0018799
X-0059842Y0022441
X-0076772Y0018898
X-008563Y0014488
X-0084764Y0009803
X-0088898Y0009252
X-0089724Y0005276
X-0092126Y0003071
X-0095276Y0009843
X-0099449Y0010236
X-0104724Y0009843
X-0105118Y-0000394
X-0095827Y-0004417
X-0096559Y-0008677
X-009685Y-0012992
X-0104331Y-001378
X-0106811Y-0022756
X-0098819Y-003937
X-0083465Y-0032283
X-0075197Y-0030315
X-0073622Y-0043307
X-007441Y-0052362
X-0085827Y-0048819
X-0084173Y-0058543
X-0100669Y-0064567
X-0104291Y-0067047
X-011063Y-0064055
X-0047343Y-005561
X-0051299Y-0048031
X-0049114Y-0043406
X-0038386Y-0034055
X-0029528Y-0042913
X-0013386Y-0051181
X-0002362Y-0047736
X-0001575Y-0062205
X0010827Y-0055512
X0013484Y-0033661
X0006988Y-0022244
X0001969Y-0022146
X-0002362Y-0008661
X-001378Y-0012992
X-0019783Y-0003347
X-0021457Y0019685
X-0005118Y0023622
X-000315Y0026181
X-000625Y0028199
X-0008661Y0040945
X-000876Y004685
X-0003937Y0050787
X-0020472Y005
X-0031004Y0050787
X-0046358Y00625
X-0062205Y0077559
X-0072441Y0079134
X-0080315Y0077559
X-0086398Y006628
X-009072Y0066126
X-0111339Y0069685
X-0099488Y0036575
X-0076772Y0049902
X-0072441Y0005512
X-0072539Y-0013189
X-0066339Y-0011122
X-0083976Y-0009882
X-0046752Y0003445
X-0043307Y-0020472
X0012795Y0003445
X0009055Y0018602
X0010531Y00625
X0020866Y0075197
X0013386Y0083858
X-0014961Y0069291
X0034646Y0051575
X0045669Y0045276
X0057972Y0030906
Y0019587
X0071063Y0003445
X0079252Y-0016693
X0094488Y-0013386
X0088701Y-0038504
X0073622Y-0031102
X0067126Y-0035709
X0051732Y-0033976
X0045177Y-0012697
X0071161Y-005561
X0079528Y-0062205
X0110354Y-003563
X0147638Y-0029528
Y0019685
X0107087Y0014173
X0102165Y0037894
X0105413Y0045472
X0108366Y0052756
X0084646Y0041732
X0084055Y006624
X0071457Y0062402
X0075709Y0084213
X0147638Y0068898
X0129213Y0093701
X0090748Y010374
X0098425Y0115748
X0076693Y0097874
X0045158Y0107756
X0021654Y0105118
X0018717Y0100043
X001478
X0016748Y0097091
X0018717Y0094138
X001478
X0013386Y0087008
X000315Y0108661
X-0000787
X0Y0116142
X-0009843Y0104724
X-0016535
X-0023622
X-003752Y0105748
X-0042244Y0112598
X-0049213Y0116535
X-0055118Y008937
X-0030315Y0087795
X-0071142Y0101063
X-0088779Y0116535
X-0115882Y0092862
X-0140157Y009252
T02
X-0123228Y0016929
Y0021654
X-0118504
Y0016929
Y0026378
X-0123228
Y0031102
X-0118504
X-0113779
Y0026378
Y0021654
Y0016929
X-0109055
Y0021654
Y0026378
Y0031102
T03
X-0035086Y-0059449
X-0025243
T04
X0062795Y-0088189
X0092323
T05
X-0086614Y-0038405
Y0040335
X0023622
Y-0038405
T06
X0100394Y-000689
Y000689
X0127953
Y-000689
T07
X-0123228Y-0066142
Y-0054331
T08
X009252Y-0022638
Y0016732
X0135827Y0022638
Y-0022638
T09
X0147638Y-0114173
X-0147638
X0147638Y0114173
X-0147638
T10
X0114173Y-0023622
Y0023622
M30
